<svg width="1728" height="912" viewBox="0 0 1728 912" fill="none" xmlns="http://www.w3.org/2000/svg">
<path d="M862.503 1221C1338.85 1221 1725.01 834.174 1725.01 357C1725.01 -120.174 1338.85 -507 862.503 -507C386.156 -507 0 -120.174 0 357C0 834.174 386.156 1221 862.503 1221Z" stroke="url(#paint0_linear_231_3225)" stroke-opacity="0.2" stroke-width="0.61" stroke-miterlimit="10" stroke-linecap="square"/>
<path d="M862.502 668.04C1033.99 668.04 1173 528.783 1173 357C1173 185.217 1033.99 45.96 862.502 45.96C691.017 45.96 552.001 185.217 552.001 357C552.001 528.783 691.017 668.04 862.502 668.04Z" stroke="url(#paint1_linear_231_3225)" stroke-opacity="0.2" stroke-width="0.61" stroke-miterlimit="10" stroke-linecap="square"/>
<path d="M862.502 909.96C1167.36 909.96 1414.5 662.391 1414.5 357C1414.5 51.6086 1167.36 -195.96 862.502 -195.96C557.64 -195.96 310.5 51.6086 310.5 357C310.5 662.391 557.64 909.96 862.502 909.96Z" stroke="url(#paint2_linear_231_3225)" stroke-opacity="0.2" stroke-width="0.61" stroke-miterlimit="10" stroke-linecap="square"/>
<path d="M960 0L960 912" stroke="#939598" stroke-opacity="0.2" stroke-width="0.61" stroke-miterlimit="10" stroke-linecap="square"/>
<path d="M1298 0L1298 912" stroke="#939598" stroke-opacity="0.2" stroke-width="0.61" stroke-miterlimit="10" stroke-linecap="square"/>
<path d="M1183 0L1183 912" stroke="#939598" stroke-opacity="0.2" stroke-width="0.61" stroke-miterlimit="10" stroke-linecap="square"/>
<path d="M1727 698H0" stroke="#939598" stroke-opacity="0.2" stroke-width="0.61" stroke-miterlimit="10" stroke-linecap="square"/>
<path d="M1726.97 831.385L1.99707 831.385" stroke="#939598" stroke-opacity="0.2" stroke-width="0.61" stroke-miterlimit="10" stroke-linecap="square"/>
<path d="M1726.97 386.385L1.99707 386.385" stroke="#939598" stroke-opacity="0.2" stroke-width="0.61" stroke-miterlimit="10" stroke-linecap="square"/>
<path d="M1727 424H0" stroke="#939598" stroke-opacity="0.2" stroke-width="0.61" stroke-miterlimit="10" stroke-linecap="square"/>
<path d="M1727 287H0" stroke="#939598" stroke-opacity="0.2" stroke-width="0.61" stroke-miterlimit="10" stroke-linecap="square"/>
<path d="M1728 249H0" stroke="#939598" stroke-opacity="0.2" stroke-width="0.61" stroke-miterlimit="10" stroke-linecap="square"/>
<path d="M202 0L202 912" stroke="#939598" stroke-opacity="0.2" stroke-width="0.61" stroke-miterlimit="10" stroke-linecap="square"/>
<path d="M72 0L72 912" stroke="#939598" stroke-opacity="0.2" stroke-width="0.61" stroke-miterlimit="10" stroke-linecap="square"/>
<path d="M639 0L639 912" stroke="#939598" stroke-opacity="0.2" stroke-width="0.61" stroke-miterlimit="10" stroke-linecap="square"/>
<path d="M433 0L433 912" stroke="#939598" stroke-opacity="0.2" stroke-width="0.61" stroke-miterlimit="10" stroke-linecap="square"/>
<path d="M1021 0L1021 912" stroke="#939598" stroke-opacity="0.2" stroke-width="0.61" stroke-miterlimit="10" stroke-linecap="square"/>
<path d="M1727 219H0" stroke="#939598" stroke-opacity="0.2" stroke-width="0.61" stroke-miterlimit="10" stroke-linecap="square"/>
<path d="M1727 495H0" stroke="#939598" stroke-opacity="0.2" stroke-width="0.61" stroke-miterlimit="10" stroke-linecap="square"/>
<path d="M0 356H1727" stroke="#939598" stroke-opacity="0.2" stroke-width="0.61" stroke-miterlimit="10" stroke-linecap="square"/>
<path d="M281 0L281 912" stroke="url(#paint3_linear_231_3225)" stroke-opacity="0.2" stroke-width="0.61" stroke-miterlimit="10" stroke-linecap="square"/>
<path d="M771 0L771 912" stroke="#939598" stroke-opacity="0.2" stroke-width="0.61" stroke-miterlimit="10" stroke-linecap="square"/>
<path d="M1002 0L1002 912" stroke="url(#paint4_linear_231_3225)" stroke-opacity="0.3" stroke-width="0.61" stroke-miterlimit="10" stroke-linecap="square"/>
<path d="M1156 0L1156 912" stroke="url(#paint5_linear_231_3225)" stroke-opacity="0.2" stroke-width="0.61" stroke-miterlimit="10" stroke-linecap="square"/>
<defs>
<linearGradient id="paint0_linear_231_3225" x1="1401.3" y1="881.563" x2="930.866" y2="-307.622" gradientUnits="userSpaceOnUse">
<stop stop-color="#939598"/>
<stop offset="1" stop-color="#939598" stop-opacity="0"/>
</linearGradient>
<linearGradient id="paint1_linear_231_3225" x1="1053.21" y1="667.999" x2="950.535" y2="46.7809" gradientUnits="userSpaceOnUse">
<stop stop-color="#939598"/>
<stop offset="1" stop-color="#939598" stop-opacity="0"/>
</linearGradient>
<linearGradient id="paint2_linear_231_3225" x1="806.599" y1="-185.329" x2="1184.47" y2="534.132" gradientUnits="userSpaceOnUse">
<stop stop-color="#939598" stop-opacity="0"/>
<stop offset="1" stop-color="#939598"/>
</linearGradient>
<linearGradient id="paint3_linear_231_3225" x1="281.5" y1="-2.18557e-08" x2="281.5" y2="912" gradientUnits="userSpaceOnUse">
<stop stop-color="#939598"/>
<stop offset="0.161458" stop-color="#939598" stop-opacity="0"/>
<stop offset="0.416667" stop-color="#939598" stop-opacity="0"/>
<stop offset="1" stop-color="#939598"/>
</linearGradient>
<linearGradient id="paint4_linear_231_3225" x1="1002.5" y1="-2.18557e-08" x2="1002.5" y2="912" gradientUnits="userSpaceOnUse">
<stop stop-color="#939598"/>
<stop offset="0.140625" stop-color="#939598" stop-opacity="0"/>
<stop offset="0.552083" stop-color="#939598" stop-opacity="0"/>
<stop offset="1" stop-color="#939598"/>
</linearGradient>
<linearGradient id="paint5_linear_231_3225" x1="1156.5" y1="-2.18557e-08" x2="1156.5" y2="912" gradientUnits="userSpaceOnUse">
<stop stop-color="#939598"/>
<stop offset="0.161458" stop-color="#939598" stop-opacity="0"/>
<stop offset="0.416667" stop-color="#939598" stop-opacity="0"/>
<stop offset="1" stop-color="#939598"/>
</linearGradient>
</defs>
</svg>
