<svg width="491" height="419" viewBox="0 0 491 419" fill="none" xmlns="http://www.w3.org/2000/svg">
<path d="M194.762 305.007C194.762 290.629 190.02 279.426 180.537 271.397C171.225 263.368 154.758 255.059 131.135 246.47C107.512 237.881 88.1991 229.572 73.1975 221.543C24.3991 195.589 -1.09893e-05 159.925 0 114.553C5.47205e-06 91.9594 6.03514 72.0738 18.1054 54.8956C30.3481 37.5306 47.5913 24.0868 69.8351 14.5641C92.0789 4.8547 117.082 -7.88427e-06 144.843 0C171.915 7.6884e-06 196.142 5.22817 217.523 15.6845C228.028 20.7805 237.386 26.9408 245.597 34.1656C251.106 30.0064 257.037 26.2736 263.389 22.9674C285.633 11.3907 311.929 5.60243 342.277 5.60244C388.144 5.60245 424.269 18.4861 450.651 44.2535C477.033 70.0208 490.483 105.311 491 150.124L491 419L399.697 419L399.697 148.163C398.663 103.537 379.523 81.2239 342.277 81.2239C323.482 81.2239 309.256 86.8255 299.6 98.0287C289.944 109.232 285.116 127.437 285.116 152.644L285.116 219.962C270.094 200.349 249.511 183.942 224.543 170.658C215.636 165.892 205.547 161.139 194.33 156.384V152.084C194.33 143.245 194.838 134.749 195.854 126.596H195.021C195.021 109.978 190.279 97.0943 180.795 87.945C171.484 78.7957 158.81 74.2211 142.774 74.2211C126.565 74.2211 113.719 78.1422 104.235 85.9844C94.924 93.6399 90.2683 103.443 90.2683 115.393C90.2683 125.849 95.4413 135.372 105.787 143.961C116.133 152.363 134.325 161.139 160.362 170.288C186.399 179.251 207.781 188.96 224.507 199.417C265.201 224.811 285.548 259.821 285.548 304.447C285.548 340.11 273.133 368.118 248.302 388.47C223.472 408.823 189.417 418.999 146.136 418.999L146.136 345.058C161.138 345.058 172.95 341.604 181.571 334.695C190.365 327.6 194.762 317.704 194.762 305.007Z" fill="url(#paint0_linear_1576_7423)"/>
<defs>
<linearGradient id="paint0_linear_1576_7423" x1="26.3822" y1="209.5" x2="439.703" y2="209.5" gradientUnits="userSpaceOnUse">
<stop stop-color="#3BB969"/>
<stop offset="1" stop-color="#8CC641"/>
</linearGradient>
</defs>
</svg>
