<?xml version="1.0" standalone="no"?>
<!DOCTYPE svg PUBLIC "-//W3C//DTD SVG 20010904//EN"
 "http://www.w3.org/TR/2001/REC-SVG-20010904/DTD/svg10.dtd">
<svg version="1.0" xmlns="http://www.w3.org/2000/svg"
 width="982.000000pt" height="982.000000pt" viewBox="0 0 982.000000 982.000000"
 preserveAspectRatio="xMidYMid meet">
<metadata>
Created by potrace 1.14, written by Peter Selinger 2001-2017
</metadata>
<g transform="translate(0.000000,982.000000) scale(0.100000,-0.100000)"
fill="#000000" stroke="none">
<path d="M2638 9095 c-1 -1 -41 -6 -88 -9 -135 -10 -299 -30 -340 -41 -8 -2
-37 -7 -65 -11 -27 -3 -54 -8 -58 -11 -4 -2 -20 -6 -35 -8 -15 -3 -38 -7 -52
-10 -14 -3 -36 -8 -50 -11 -30 -5 -130 -35 -257 -74 -122 -39 -303 -112 -425
-172 -54 -26 -102 -48 -105 -48 -4 0 -14 -6 -22 -14 -9 -7 -36 -24 -61 -38
-91 -48 -223 -139 -330 -228 -72 -59 -235 -222 -285 -285 -22 -27 -43 -52 -46
-55 -3 -3 -20 -27 -39 -55 -19 -27 -36 -52 -40 -55 -23 -18 -174 -300 -182
-340 -2 -8 -5 -17 -8 -20 -8 -7 -78 -218 -84 -250 -2 -14 -11 -54 -20 -90 -8
-36 -16 -83 -18 -105 -2 -22 -6 -45 -9 -50 -9 -18 -14 -127 -13 -325 1 -220 6
-269 40 -440 19 -89 22 -103 24 -110 1 -3 3 -9 4 -15 4 -20 28 -98 38 -124 6
-14 12 -28 13 -31 18 -71 109 -265 177 -373 26 -43 48 -82 48 -87 0 -5 4 -10
8 -12 4 -1 23 -25 42 -53 19 -27 37 -52 40 -55 3 -3 27 -32 54 -65 28 -33 65
-75 83 -92 18 -18 31 -33 29 -33 -7 0 155 -152 219 -205 33 -28 62 -52 65 -55
3 -3 27 -21 53 -40 27 -19 61 -45 77 -57 15 -13 31 -23 35 -23 3 0 13 -6 20
-12 27 -24 40 -34 107 -76 37 -23 72 -42 77 -42 5 0 11 -4 13 -8 2 -5 37 -28
78 -51 92 -51 466 -238 494 -247 12 -4 58 -24 103 -45 45 -22 84 -39 88 -39 3
0 22 -7 43 -17 20 -9 39 -17 42 -17 3 -1 14 -7 25 -13 11 -6 22 -11 25 -11 3
0 22 -7 42 -15 20 -9 65 -26 100 -38 35 -12 67 -26 72 -31 6 -4 16 -8 23 -8 7
0 32 -8 56 -19 23 -10 71 -29 107 -41 36 -12 84 -31 107 -41 24 -11 47 -19 52
-19 4 0 64 -23 132 -51 321 -131 481 -215 699 -366 63 -43 210 -206 210 -233
0 -5 3 -10 8 -10 7 0 11 -8 51 -103 20 -47 46 -143 58 -217 9 -57 10 -211 1
-265 -4 -27 -9 -62 -10 -77 -1 -16 -7 -28 -12 -28 -5 0 -7 -3 -3 -6 12 -12
-59 -178 -90 -212 -7 -7 -13 -17 -13 -21 0 -16 -120 -130 -179 -170 -58 -40
-155 -88 -211 -106 -24 -7 -87 -25 -92 -25 -4 -1 -22 -5 -40 -11 -49 -14 -168
-27 -259 -28 l-56 -1 0 -741 0 -741 181 7 c100 4 197 9 216 11 19 2 67 6 105
9 39 2 81 7 95 10 14 2 43 7 65 10 23 3 52 8 65 10 14 3 41 8 60 11 67 10 80
13 98 18 9 3 28 7 42 10 134 26 390 103 402 120 4 6 8 8 8 4 0 -9 70 18 185
72 48 22 89 40 92 40 3 0 18 9 34 21 16 11 29 17 29 12 0 -4 4 -3 8 2 4 6 21
17 37 25 17 8 32 17 35 20 3 3 26 18 52 33 26 15 54 34 62 43 9 8 16 13 16 9
0 -5 101 69 136 100 6 6 30 26 54 45 141 116 289 286 396 456 61 98 164 305
170 344 2 8 7 23 13 35 16 33 58 183 79 285 21 96 26 134 40 250 10 89 9 491
-2 565 -4 33 -10 74 -11 90 -6 50 -14 102 -26 152 -6 27 -12 55 -14 63 -1 8
-8 35 -15 60 -7 25 -13 52 -15 60 -7 33 -68 197 -104 278 -155 352 -426 683
-768 939 -43 32 -82 61 -88 66 -32 26 -192 126 -202 127 -7 0 -13 4 -13 8 0 5
-12 15 -27 23 -16 7 -55 29 -88 49 -33 19 -66 35 -74 36 -8 2 -17 7 -20 12 -8
12 -248 129 -406 197 -16 7 -57 25 -90 40 -33 15 -67 28 -75 30 -8 2 -33 11
-55 20 -70 30 -90 38 -97 40 -5 2 -10 4 -13 5 -3 1 -8 3 -12 4 -5 1 -14 5 -20
9 -7 5 -21 10 -30 12 -10 2 -49 15 -88 30 -38 14 -74 28 -80 29 -5 2 -21 7
-35 13 -14 6 -54 20 -90 32 -36 13 -93 33 -127 47 -35 13 -93 36 -130 50 -96
37 -296 125 -310 136 -7 6 -13 7 -13 2 0 -5 -4 -4 -8 1 -4 6 -41 27 -82 47
-129 65 -178 93 -324 194 -49 34 -173 159 -203 206 -15 24 -34 49 -40 56 -7 7
-13 20 -13 28 0 8 -4 14 -9 14 -5 0 -11 8 -14 18 -3 9 -15 43 -26 74 -32 88
-41 187 -27 308 7 66 10 82 17 95 3 6 12 31 19 58 7 26 17 50 21 53 5 3 9 12
9 20 0 8 5 20 10 27 6 7 24 32 40 57 69 105 205 223 325 280 59 28 101 45 120
50 6 1 26 8 45 16 19 7 46 15 60 18 14 2 46 9 72 15 99 23 319 31 468 18 36
-3 65 -7 65 -7 0 -1 14 -4 30 -6 209 -33 456 -176 572 -332 16 -20 31 -39 34
-42 24 -20 122 -229 134 -287 2 -10 8 -40 14 -66 15 -64 25 -141 25 -199 1
-27 4 -48 8 -48 4 0 5 -7 2 -15 -4 -8 -3 -23 1 -32 7 -17 7 -32 -1 -123 -6
-77 -16 -290 -18 -379 l-1 -93 45 -23 c25 -12 74 -35 110 -50 168 -70 630
-307 638 -327 2 -4 8 -8 13 -8 16 0 348 -218 379 -250 3 -3 34 -27 70 -55 36
-27 70 -54 76 -60 6 -5 42 -37 79 -70 85 -75 193 -182 265 -264 30 -35 60 -68
66 -74 6 -7 25 -32 42 -56 l32 -44 1 34 c0 19 2 381 4 804 2 424 6 786 9 805
3 19 7 58 9 85 3 28 9 75 15 105 7 30 13 66 16 80 11 69 64 234 101 315 24 53
75 135 117 190 29 38 150 155 159 155 4 0 14 6 21 14 30 30 203 115 263 130 6
2 30 8 55 15 25 7 55 15 68 17 12 2 34 6 50 9 106 19 378 25 447 10 17 -3 50
-8 74 -11 108 -13 327 -96 400 -151 67 -51 140 -114 168 -146 104 -115 206
-315 248 -487 33 -134 51 -249 62 -395 3 -49 6 -1320 7 -2823 l0 -2732 913 0
914 0 -4 2828 c-2 1555 -7 2843 -10 2862 -3 19 -8 62 -12 95 -7 74 -13 122
-19 155 -7 36 -18 102 -20 120 -2 8 -6 29 -9 45 -4 17 -10 40 -12 53 -11 52
-14 65 -20 82 -3 10 -8 28 -10 41 -2 12 -12 47 -21 78 -10 31 -18 61 -20 66
-16 65 -115 310 -159 396 -9 16 -15 32 -14 35 0 4 -3 10 -8 13 -9 7 -28 39
-52 86 -32 65 -171 267 -230 335 -12 14 -41 47 -64 74 -59 68 -132 140 -215
215 -86 76 -208 171 -221 171 -5 0 -11 4 -13 8 -4 11 -113 82 -126 82 -6 0
-12 4 -14 9 -3 10 -234 130 -323 168 -27 12 -84 33 -125 48 -41 15 -91 33
-110 40 -19 7 -38 13 -42 14 -4 1 -13 3 -20 5 -15 5 -66 16 -73 17 -3 0 -24 7
-47 15 -24 8 -54 16 -68 18 -14 2 -59 11 -100 20 -41 8 -91 18 -110 20 -19 3
-44 7 -55 9 -11 3 -51 8 -88 12 -37 3 -78 8 -90 11 -12 2 -61 6 -109 8 -48 3
-91 6 -95 9 -12 6 -496 1 -588 -7 -44 -4 -114 -11 -155 -16 -42 -6 -94 -13
-115 -15 -45 -6 -77 -12 -118 -21 -16 -3 -38 -7 -50 -9 -12 -2 -33 -6 -47 -9
-14 -3 -35 -8 -47 -11 -49 -11 -60 -14 -123 -30 -86 -22 -292 -91 -358 -121
-29 -13 -55 -24 -58 -24 -3 0 -58 -26 -122 -59 -131 -66 -261 -143 -340 -202
-54 -41 -68 -42 -104 -6 -7 7 -47 39 -88 70 -41 31 -80 61 -87 67 -7 5 -15 10
-18 10 -3 0 -27 16 -54 35 -26 19 -52 35 -56 35 -4 0 -19 9 -33 19 -29 20
-165 90 -273 140 -130 59 -288 114 -464 161 -99 26 -138 35 -200 46 -11 1 -30
5 -42 8 -22 5 -85 14 -138 21 -16 2 -30 4 -30 5 0 0 -20 3 -45 6 -25 2 -63 7
-85 9 -47 6 -611 15 -617 10z"/>
</g>
</svg>
